<svg id="visual" viewBox="0 0 380 160" width="380" height="160" xmlns="http://www.w3.org/2000/svg" xmlns:xlink="http://www.w3.org/1999/xlink" version="1.1"><rect x="0" y="0" width="380" height="160" fill="#f1f1f1"></rect><g transform="translate(175.14318506189304 81.62236218643352)"><path d="M51.1 -56.8C67.5 -47.2 83 -32.3 85.7 -15.3C88.5 1.6 78.4 20.5 66.6 36C54.7 51.4 41 63.3 25.9 66.9C10.8 70.5 -5.7 65.8 -20.9 59.4C-36.2 53.1 -50.1 45 -54.6 33.4C-59.1 21.8 -54.2 6.5 -52.7 -10.6C-51.3 -27.7 -53.3 -46.8 -45.1 -57.9C-36.9 -68.9 -18.4 -72 -0.5 -71.3C17.4 -70.7 34.7 -66.4 51.1 -56.8" fill="#0066dd"></path></g></svg>