<svg xmlns="http://www.w3.org/2000/svg" version="1.1" xmlns:xlink="http://www.w3.org/1999/xlink" xmlns:svgjs="http://svgjs.com/svgjs" width="1440" height="900" preserveAspectRatio="none" viewBox="0 0 1440 900"><g mask="url(&quot;#SvgjsMask3758&quot;)" fill="none"><rect width="1440" height="900" x="0" y="0" fill="rgba(209, 217, 225, 1)"></rect><path d="M1044.37 260.64L1031.58 261.33 1028.11 249 1015.32 249.69 1011.84 237.36 999.05 238.05 995.58 225.72M1049.03 254.13L1036.24 254.82 1032.76 242.49 1019.97 243.18 1016.5 230.85 1003.71 231.54 1000.23 219.22M1053.68 247.63L1040.89 248.31 1037.42 235.99 1024.63 236.67 1021.15 224.35 1008.37 225.04 1004.89 212.71" stroke="rgba(255, 101, 101, 1)" stroke-width="1.14" stroke-dasharray="2, 2"></path><rect width="204" height="204" clip-path="url(&quot;#SvgjsClipPath3759&quot;)" x="849.36" y="584.33" fill="url(#SvgjsPattern3760)" transform="rotate(207.95, 951.36, 686.33)"></rect><rect width="390.4" height="390.4" clip-path="url(&quot;#SvgjsClipPath3761&quot;)" x="61.75" y="29.83" fill="url(#SvgjsPattern3762)" transform="rotate(65.93, 256.95, 225.03)"></rect><path d="M470.56 449.98a5.6 5.6 0 1 0-11.17 0.87 5.6 5.6 0 1 0 11.17-0.87zM454.6 451.22a5.6 5.6 0 1 0-11.16 0.87 5.6 5.6 0 1 0 11.16-0.87zM438.65 452.47a5.6 5.6 0 1 0-11.16 0.87 5.6 5.6 0 1 0 11.16-0.87zM422.7 453.71a5.6 5.6 0 1 0-11.16 0.87 5.6 5.6 0 1 0 11.16-0.87zM501.21 431.54a5.6 5.6 0 1 0-11.16 0.87 5.6 5.6 0 1 0 11.16-0.87zM485.26 432.78a5.6 5.6 0 1 0-11.16 0.87 5.6 5.6 0 1 0 11.16-0.87zM469.31 434.03a5.6 5.6 0 1 0-11.16 0.87 5.6 5.6 0 1 0 11.16-0.87zM453.36 435.27a5.6 5.6 0 1 0-11.17 0.87 5.6 5.6 0 1 0 11.17-0.87z" stroke="rgba(255, 101, 101, 1)" stroke-width="2.03" stroke-dasharray="3, 2"></path><rect width="600" height="600" clip-path="url(&quot;#SvgjsClipPath3763&quot;)" x="122.05" y="-13.92" fill="url(#SvgjsPattern3764)" transform="rotate(327.56, 422.05, 286.08)"></rect><rect width="504" height="504" clip-path="url(&quot;#SvgjsClipPath3765&quot;)" x="-132.48" y="-210.11" fill="url(#SvgjsPattern3766)" transform="rotate(286.84, 119.52, 41.89)"></rect><rect width="238.56" height="238.56" clip-path="url(&quot;#SvgjsClipPath3767&quot;)" x="910.6" y="524.14" fill="url(#SvgjsPattern3768)" transform="rotate(87.06, 1029.88, 643.42)"></rect><circle r="75" cx="134.55" cy="280.5" fill="#d3b714"></circle></g><defs><mask id="SvgjsMask3758"><rect width="1440" height="900" fill="#ffffff"></rect></mask><pattern x="0" y="0" width="6" height="6" patternUnits="userSpaceOnUse" id="SvgjsPattern3760"><path d="M0 6L3 0L6 6" stroke="rgba(31, 125, 158, 1)" fill="none"></path></pattern><clipPath id="SvgjsClipPath3759"><circle r="51" cx="951.36" cy="686.33"></circle></clipPath><pattern x="0" y="0" width="12.2" height="12.2" patternUnits="userSpaceOnUse" id="SvgjsPattern3762"><path d="M0 12.2L6.1 0L12.2 12.2" stroke="rgba(31, 125, 158, 1)" fill="none"></path></pattern><clipPath id="SvgjsClipPath3761"><circle r="97.6" cx="256.95" cy="225.03"></circle></clipPath><pattern x="0" y="0" width="6" height="6" patternUnits="userSpaceOnUse" id="SvgjsPattern3764"><path d="M3 1L3 5M1 3L5 3" stroke="rgba(255, 101, 101, 1)" fill="none" stroke-width="1"></path></pattern><clipPath id="SvgjsClipPath3763"><circle r="150" cx="422.05" cy="286.08"></circle></clipPath><pattern x="0" y="0" width="6" height="6" patternUnits="userSpaceOnUse" id="SvgjsPattern3766"><path d="M0 6L3 0L6 6" stroke="rgba(31, 125, 158, 1)" fill="none"></path></pattern><clipPath id="SvgjsClipPath3765"><circle r="126" cx="119.52" cy="41.89"></circle></clipPath><pattern x="0" y="0" width="8.52" height="8.52" patternUnits="userSpaceOnUse" id="SvgjsPattern3768"><path d="M0 8.52L4.26 0L8.52 8.52" stroke="rgba(31, 125, 158, 1)" fill="none"></path></pattern><clipPath id="SvgjsClipPath3767"><circle r="59.64" cx="1029.88" cy="643.42"></circle></clipPath></defs></svg>