<svg id="visual" viewBox="0 0 900 450" width="900" height="450" xmlns="http://www.w3.org/2000/svg" xmlns:xlink="http://www.w3.org/1999/xlink" version="1.1"><rect x="0" y="0" width="900" height="450" fill="#e6e6e6"></rect><path d="M0 339L21.5 342.3C43 345.7 86 352.3 128.8 345.8C171.7 339.3 214.3 319.7 257.2 308C300 296.3 343 292.7 385.8 299.8C428.7 307 471.3 325 514.2 325.3C557 325.7 600 308.3 642.8 304.3C685.7 300.3 728.3 309.7 771.2 316.3C814 323 857 327 878.5 329L900 331L900 451L878.5 451C857 451 814 451 771.2 451C728.3 451 685.7 451 642.8 451C600 451 557 451 514.2 451C471.3 451 428.7 451 385.8 451C343 451 300 451 257.2 451C214.3 451 171.7 451 128.8 451C86 451 43 451 21.5 451L0 451Z" fill="#0066FF" stroke-linecap="round" stroke-linejoin="miter"></path></svg>