<svg id="visual" viewBox="0 0 900 450" width="900" height="450" xmlns="http://www.w3.org/2000/svg" xmlns:xlink="http://www.w3.org/1999/xlink" version="1.1"><rect x="0" y="0" width="900" height="450" fill="#f1f1f1"></rect><path d="M0 324L21.5 322.3C43 320.7 86 317.3 128.8 323.2C171.7 329 214.3 344 257.2 344.3C300 344.7 343 330.3 385.8 319.2C428.7 308 471.3 300 514.2 304.3C557 308.7 600 325.3 642.8 337C685.7 348.7 728.3 355.3 771.2 350.2C814 345 857 328 878.5 319.5L900 311L900 451L878.5 451C857 451 814 451 771.2 451C728.3 451 685.7 451 642.8 451C600 451 557 451 514.2 451C471.3 451 428.7 451 385.8 451C343 451 300 451 257.2 451C214.3 451 171.7 451 128.8 451C86 451 43 451 21.5 451L0 451Z" fill="#0066FF" stroke-linecap="round" stroke-linejoin="miter"></path></svg>